<?xml version="1.0" encoding="UTF-8" standalone="no"?><!-- Generator: Gravit.io --><svg xmlns="http://www.w3.org/2000/svg" xmlns:xlink="http://www.w3.org/1999/xlink" style="isolation:isolate" viewBox="0 0 161.144 127.754" width="161.144pt" height="127.754pt"><defs><clipPath id="_clipPath_qf4wwG5gFdZKXB4e8mXbUTBKW8aGZTiP"><rect width="161.144" height="127.754"/></clipPath></defs><g clip-path="url(#_clipPath_qf4wwG5gFdZKXB4e8mXbUTBKW8aGZTiP)"><clipPath id="_clipPath_wVfcju9lD9yu8R34xAuS4P5ywvkAm5nt"><rect x="0" y="0" width="161.144" height="127.754" transform="matrix(1,0,0,1,0,0)" fill="rgb(255,255,255)"/></clipPath><g clip-path="url(#_clipPath_wVfcju9lD9yu8R34xAuS4P5ywvkAm5nt)"><g><path d=" M 67.889 48.754 L 10.889 48.754 Q -3.111 48.004 0.889 63.754 Q 16.764 125.879 80.889 127.754 Q 143.5 123 159.889 63.754 Q 165.222 46.421 147.889 48.754 L 118.889 49.754 L 77.889 96.754 Q 64.764 112.004 46.889 98.754 Q 32.264 84.379 45.889 70.754 L 71.889 48.754 L 67.889 48.754 Z " fill="rgb(66,66,66)"/><path d=" M 145.889 2.754 Q 153.202 9.067 145.889 17.754 L 118.889 47.754 L 74.889 47.754 L 129.889 3.754 Q 138.952 -3.215 145.889 2.754 Z " fill="rgb(66,66,66)"/></g></g></g></svg>