<?xml version="1.0" standalone="no"?>
<!DOCTYPE svg PUBLIC "-//W3C//DTD SVG 20010904//EN"
 "http://www.w3.org/TR/2001/REC-SVG-20010904/DTD/svg10.dtd">
<svg version="1.0" xmlns="http://www.w3.org/2000/svg"
 width="700.000000pt" height="700.000000pt" viewBox="0 0 700.000000 700.000000"
 preserveAspectRatio="xMidYMid meet">
<metadata>
Created by potrace 1.11, written by Peter Selinger 2001-2013
</metadata>
<g transform="translate(0.000000,700.000000) scale(0.100000,-0.100000)"
fill="#000000" stroke="none">
<path d="M5755 6107 c-33 -13 -85 -37 -116 -55 -45 -25 -2294 -1814 -2349
-1868 -12 -12 105 -14 891 -14 l905 0 559 621 c307 342 573 640 591 663 49 65
92 158 105 229 11 57 10 75 -6 132 -32 119 -143 238 -272 291 -80 33 -221 33
-308 1z"/>
<path d="M6389 4136 c-4 -4 -300 -17 -658 -30 -358 -12 -652 -24 -655 -27 -2
-2 -192 -220 -422 -485 -1434 -1645 -1355 -1556 -1471 -1640 -222 -160 -479
-187 -749 -78 -212 85 -365 203 -486 374 -217 308 -194 618 67 908 27 30 291
259 588 510 l540 457 -1284 3 c-824 2 -1314 -1 -1369 -8 -160 -19 -260 -92
-296 -219 -28 -93 -15 -284 31 -451 153 -566 376 -1034 676 -1420 104 -135
313 -346 454 -459 456 -366 987 -577 1687 -673 219 -29 593 -32 773 -5 834
126 1424 382 1936 843 471 423 804 1001 1030 1789 36 125 50 316 30 391 -25
93 -105 171 -205 199 -58 16 -208 30 -217 21z"/>
</g>
</svg>
